HIERARCHY
ROOT Hips
{
	OFFSET 0.000000 89.005402 0.000000
	CHANNELS 6 Xposition Yposition Zposition Xrotation Yrotation Zrotation
	JOINT Spine
	{
		OFFSET 0.116900 10.681000 0.373400
		CHANNELS 3 Xrotation Yrotation Zrotation
		JOINT Spine1
		{
			OFFSET 0.000000 13.840401 0.053500
			CHANNELS 3 Xrotation Yrotation Zrotation
			JOINT Spine2
			{
				OFFSET 0.000000 14.712700 -0.366200
				CHANNELS 3 Xrotation Yrotation Zrotation
				JOINT Neck
				{
					OFFSET 0.000000 35.415497 -3.314200
					CHANNELS 3 Xrotation Yrotation Zrotation
					JOINT Head
					{
						OFFSET 0.000000 16.899200 1.218300
						CHANNELS 3 Xrotation Yrotation Zrotation
						JOINT HeadTop_End
						{
							OFFSET 0.000000 22.206207 2.192500
							CHANNELS 3 Xrotation Yrotation Zrotation
							End Site
							{
								OFFSET 0.000000 22.314178 0.000000
							}
						}
					}
				}
				JOINT LeftShoulder
				{
					OFFSET 12.896400 26.716293 -4.548400
					CHANNELS 3 Xrotation Yrotation Zrotation
					JOINT LeftArm
					{
						OFFSET 19.027000 -4.857010 -1.718400
						CHANNELS 3 Xrotation Yrotation Zrotation
						JOINT LeftForeArm
						{
							OFFSET 24.179897 0.000000 0.000000
							CHANNELS 3 Xrotation Yrotation Zrotation
							JOINT LeftHand
							{
								OFFSET 27.156403 0.000000 0.000000
								CHANNELS 3 Xrotation Yrotation Zrotation
								JOINT LeftHandIndex1
								{
									OFFSET 16.441200 0.000000 0.000000
									CHANNELS 3 Xrotation Yrotation Zrotation
									JOINT LeftHandIndex2
									{
										OFFSET 4.821899 0.000000 0.000000
										CHANNELS 3 Xrotation Yrotation Zrotation
										JOINT LeftHandIndex3
										{
											OFFSET 6.386497 0.000000 0.000000
											CHANNELS 3 Xrotation Yrotation Zrotation
											JOINT LeftHandIndex4
											{
												OFFSET 5.188988 0.000000 0.000000
												CHANNELS 3 Xrotation Yrotation Zrotation
												End Site
												{
													OFFSET -0.178703 5.185913 0.000177
												}
											}
										}
									}
								}
								JOINT LeftHandThumb1
								{
									OFFSET 6.534897 -5.032593 5.900300
									CHANNELS 3 Xrotation Yrotation Zrotation
									JOINT LeftHandThumb2
									{
										OFFSET 3.818176 -2.204422 2.204423
										CHANNELS 3 Xrotation Yrotation Zrotation
										JOINT LeftHandThumb3
										{
											OFFSET 3.252098 -1.877594 1.877601
											CHANNELS 3 Xrotation Yrotation Zrotation
											JOINT LeftHandThumb4
											{
												OFFSET 5.251778 -3.032120 3.032117
												CHANNELS 3 Xrotation Yrotation Zrotation
												End Site
												{
													OFFSET 0.000023 6.780014 0.000000
												}
											}
										}
									}
								}
							}
						}
					}
				}
				JOINT RightShoulder
				{
					OFFSET -12.896300 26.716293 -4.548400
					CHANNELS 3 Xrotation Yrotation Zrotation
					JOINT RightArm
					{
						OFFSET -19.027000 -4.857010 -1.718400
						CHANNELS 3 Xrotation Yrotation Zrotation
						JOINT RightForeArm
						{
							OFFSET -24.179897 0.000000 0.000000
							CHANNELS 3 Xrotation Yrotation Zrotation
							JOINT RightHand
							{
								OFFSET -27.156403 0.000000 0.000000
								CHANNELS 3 Xrotation Yrotation Zrotation
								JOINT RightHandThumb1
								{
									OFFSET -6.591202 -4.852203 5.988100
									CHANNELS 3 Xrotation Yrotation Zrotation
									JOINT RightHandThumb2
									{
										OFFSET -3.818176 -2.204422 2.204423
										CHANNELS 3 Xrotation Yrotation Zrotation
										JOINT RightHandThumb3
										{
											OFFSET -3.252098 -1.877594 1.877601
											CHANNELS 3 Xrotation Yrotation Zrotation
											JOINT RightHandThumb4
											{
												OFFSET -5.251778 -3.032120 3.032117
												CHANNELS 3 Xrotation Yrotation Zrotation
												End Site
												{
													OFFSET -0.000023 6.780014 0.000000
												}
											}
										}
									}
								}
								JOINT RightHandIndex1
								{
									OFFSET -16.029404 0.000000 0.000000
									CHANNELS 3 Xrotation Yrotation Zrotation
									JOINT RightHandIndex2
									{
										OFFSET -5.213303 0.000000 0.000000
										CHANNELS 3 Xrotation Yrotation Zrotation
										JOINT RightHandIndex3
										{
											OFFSET -6.386528 0.000000 0.000000
											CHANNELS 3 Xrotation Yrotation Zrotation
											JOINT RightHandIndex4
											{
												OFFSET -5.189026 0.000000 0.000000
												CHANNELS 3 Xrotation Yrotation Zrotation
												End Site
												{
													OFFSET 0.236702 5.183624 0.001972
												}
											}
										}
									}
								}
							}
						}
					}
				}
			}
		}
	}
	JOINT LeftUpLeg
	{
		OFFSET 14.073000 -7.904099 -1.463000
		CHANNELS 3 Xrotation Yrotation Zrotation
		JOINT LeftLeg
		{
			OFFSET -0.109806 -34.073280 4.093200
			CHANNELS 3 Xrotation Yrotation Zrotation
			JOINT LeftFoot
			{
				OFFSET 0.109806 -29.899420 -6.319000
				CHANNELS 3 Xrotation Yrotation Zrotation
				JOINT LeftToeBase
				{
					OFFSET 1.551100 -14.988700 20.535801
					CHANNELS 3 Xrotation Yrotation Zrotation
					JOINT LeftToe_End
					{
						OFFSET 0.221200 0.570800 13.248301
						CHANNELS 3 Xrotation Yrotation Zrotation
						End Site
						{
							OFFSET 0.000000 13.262435 0.000000
						}
					}
				}
			}
		}
	}
	JOINT RightUpLeg
	{
		OFFSET -13.839300 -7.904099 -1.463000
		CHANNELS 3 Xrotation Yrotation Zrotation
		JOINT RightLeg
		{
			OFFSET 0.109694 -34.073219 4.093300
			CHANNELS 3 Xrotation Yrotation Zrotation
			JOINT RightFoot
			{
				OFFSET -0.109694 -29.899384 -6.319200
				CHANNELS 3 Xrotation Yrotation Zrotation
				JOINT RightToeBase
				{
					OFFSET -1.551100 -14.988700 20.535801
					CHANNELS 3 Xrotation Yrotation Zrotation
					JOINT RightToe_End
					{
						OFFSET -0.221200 0.570900 13.248299
						CHANNELS 3 Xrotation Yrotation Zrotation
						End Site
						{
							OFFSET 0.000000 13.262440 0.000000
						}
					}
				}
			}
		}
	}
}
MOTION
Frames: 9
Frame Time: 0.033333
0.655603 87.537712 1.257460 -3.331728 8.326229 -2.937905 0.027605 4.523040 1.612345 4.000503 -1.274404 3.887447 4.030841 -1.340305 3.854695 -1.386101 -1.012366 -2.055924 -8.315699 -3.842578 3.583840 0.000001 -0.000000 0.000000 -1.670601 -6.377213 -12.430214 6.414316 -22.013498 -72.829003 0.000009 -18.935622 0.000021 -20.707330 -3.482918 4.222364 0.024235 2.682556 -10.495200 0.587501 2.558954 -25.856444 0.235311 1.645278 -16.277650 -0.000001 0.000000 -0.000002 -1.777630 2.835001 7.877338 2.843053 24.566549 11.256702 -3.536289 16.994769 15.887109 0.000001 -0.000001 0.000001 0.829088 7.070043 10.414007 -2.026478 11.921490 66.623940 -0.000001 8.019773 -0.000003 -24.560510 -11.141877 -1.301705 -8.958185 3.700071 -4.451119 11.606429 -28.736976 -9.362020 1.173017 -18.508156 -16.137193 -0.000000 -0.000001 -0.000004 -0.010938 -2.409388 10.758198 0.291599 -1.623615 20.362088 0.077602 -0.847540 10.462888 -0.000001 -0.000001 0.000001 -13.500408 13.379432 10.533391 12.821725 -1.412594 4.126773 2.668682 0.346196 -7.172308 -0.000057 -0.000000 -0.000001 -0.000000 0.000002 0.000000 2.532911 0.866728 1.287325 5.835921 -8.307554 0.122869 -4.873600 2.458459 2.735701 -0.005445 0.000001 0.000001 -0.000000 -0.000000 -0.000000 
0.680678 87.302055 1.210922 -3.452932 7.466396 -2.773556 0.162120 4.310055 1.501628 3.910738 -1.255789 3.774567 3.939755 -1.319919 3.742737 -1.398800 -0.954571 -1.988143 -8.189848 -3.612867 3.649616 0.000000 -0.000000 -0.000000 -1.617081 -6.347194 -12.306909 6.720392 -22.129944 -72.454681 -0.000004 -19.422425 -0.000005 -19.724523 -3.859547 3.941557 0.026955 2.683882 -10.307144 0.581046 2.545611 -25.711532 0.223555 1.604518 -15.863348 0.000000 -0.000000 0.000002 -1.854562 2.765798 7.809025 3.004500 24.460092 10.954874 -3.554551 16.647217 15.758922 -0.000000 0.000001 -0.000000 0.456302 7.307866 9.746256 -1.638175 11.741913 65.931270 0.000001 7.573597 -0.000000 -24.817021 -11.765301 -1.696652 -8.863224 3.663851 -4.406410 11.668626 -28.638905 -9.001109 1.313891 -18.634213 -15.962842 -0.000001 0.000001 0.000002 -0.005164 -2.481000 11.376974 0.308769 -1.669130 20.959702 0.091027 -0.917261 11.334657 0.000000 -0.000001 0.000002 -13.756621 13.318100 10.605041 14.165924 -0.570447 4.126583 1.803131 0.416447 -7.299334 -0.000022 0.000000 0.000000 -0.000000 0.000000 0.000000 1.285758 0.858380 1.064096 8.281843 -7.462327 0.092025 -5.976101 2.443625 2.880490 -0.005447 0.000001 -0.000000 -0.000000 0.000000 -0.000000 
0.711253 87.105446 1.178915 -3.619783 6.606218 -2.608587 0.312764 4.067161 1.347609 3.806863 -1.240077 3.649932 3.834512 -1.302308 3.619076 -1.483068 -0.918110 -1.945379 -7.617144 -3.556376 3.837114 0.000000 -0.000000 0.000001 -1.562882 -6.346988 -12.172850 7.165388 -22.364374 -72.019892 0.000006 -20.044329 0.000015 -18.731251 -4.199574 3.717884 0.029727 2.685207 -10.109144 0.574320 2.531607 -25.559611 0.211515 1.561504 -15.427200 0.000000 0.000001 0.000002 -1.927358 2.736584 7.738480 3.172588 24.365554 10.639568 -3.562016 16.266825 15.606590 0.000001 0.000000 -0.000002 0.070363 7.568910 9.051793 -1.445129 11.701630 65.353231 0.000002 6.965379 0.000021 -24.319742 -11.869658 -2.733097 -8.756382 3.603263 -4.334106 11.776951 -28.581622 -8.586693 1.520002 -18.832305 -15.756753 -0.000000 0.000000 0.000001 0.000650 -2.532355 11.738865 0.317951 -1.692895 21.272728 0.100896 -0.965174 11.935336 0.000001 0.000000 -0.000002 -13.813955 13.295625 10.650344 15.241709 0.251814 4.104976 1.056515 0.485803 -7.434970 -0.000084 -0.000003 0.000001 -0.000000 -0.000002 -0.000000 0.351188 0.869085 0.833458 10.191064 -6.619115 0.076319 -6.811845 2.433523 2.952473 -0.005446 -0.000001 -0.000000 -0.000000 0.000000 -0.000000 
0.736225 86.957008 1.156321 -3.823189 5.748363 -2.447686 0.503542 3.866906 1.166831 3.697840 -1.214811 3.521948 3.724132 -1.274991 3.492111 -1.613125 -0.887757 -2.027903 -6.641718 -3.751545 4.218508 -0.000000 0.000000 -0.000000 -1.507487 -6.398070 -11.997617 7.817310 -22.979628 -71.472281 0.000002 -20.878652 0.000008 -17.732822 -4.484852 3.563445 0.032524 2.686543 -9.902109 0.567347 2.516991 -25.401323 0.199266 1.516439 -14.971128 -0.000000 -0.000000 0.000001 -2.005821 2.693739 7.664345 3.348198 24.258967 10.310283 -3.577238 15.855953 15.448848 0.000001 0.000000 0.000003 -0.326292 7.853521 8.334314 -0.976480 11.572086 64.667896 -0.000003 7.309224 -0.000012 -25.080181 -9.948224 -4.155755 -8.642041 3.531837 -4.248792 11.906265 -28.539221 -8.141160 1.757979 -19.062600 -15.532791 -0.000000 -0.000000 0.000001 0.006611 -2.576587 12.003846 0.316240 -1.688493 21.214691 0.105010 -0.984438 12.177228 0.000000 -0.000000 -0.000002 -13.671267 13.312390 10.667181 16.006736 1.058494 4.079089 0.460964 0.545781 -7.588684 0.000018 0.000005 0.000002 -0.000000 0.000000 -0.000000 -0.322070 0.892985 0.611131 11.638987 -5.783643 0.067357 -7.413489 2.431923 2.963199 -0.005445 -0.000001 -0.000001 0.000000 0.000000 0.000000 
0.789111 86.830734 1.093479 -3.908877 4.998757 -2.317768 0.760565 3.701778 0.962265 3.591309 -1.181430 3.385185 3.616232 -1.239498 3.356405 -1.790991 -0.907205 -2.088110 -5.501166 -4.177191 4.679227 0.000000 0.000000 -0.000001 -1.447161 -6.461519 -11.740523 8.671392 -24.129284 -70.543860 0.000007 -22.275113 0.000010 -16.761255 -4.588546 3.448040 0.035339 2.687886 -9.686874 0.560164 2.501820 -25.237243 0.186913 1.469492 -14.497065 0.000001 -0.000000 -0.000003 -2.099768 2.583683 7.585005 3.532074 24.116319 9.966767 -3.618235 15.416973 15.304301 0.000000 -0.000001 0.000000 -0.731246 8.161857 7.597460 0.931542 10.377682 63.235169 0.000006 11.124052 0.000005 -26.631492 -9.606484 -5.617965 -8.523589 3.459533 -4.161440 12.037905 -28.492839 -7.681169 2.002777 -19.296003 -15.301524 -0.000001 -0.000001 -0.000002 0.012971 -2.620358 12.253870 0.304984 -1.659219 20.829400 0.103739 -0.978530 12.102994 -0.000000 -0.000000 0.000002 -13.648630 13.317557 10.633947 16.622563 1.778152 4.055621 0.007600 0.594531 -7.690069 -0.000031 -0.000003 -0.000003 0.000000 -0.000002 -0.000000 -1.014554 0.921041 0.385123 12.827246 -5.055634 0.061213 -7.848858 2.431506 2.980095 -0.005445 0.000000 0.000001 0.000000 0.000000 -0.000000 
0.911239 86.686745 0.969477 -3.927475 4.554362 -2.250275 1.297695 3.333991 0.806744 3.520871 -1.178822 3.251863 3.544372 -1.234785 3.224246 -2.084480 -0.920631 -2.124435 -4.365946 -4.564568 5.295152 -0.000000 -0.000000 -0.000000 -1.377542 -6.446141 -11.396644 9.501171 -25.498961 -68.950753 -0.000012 -24.501700 0.000001 -15.873945 -4.384767 3.307862 0.038120 2.689256 -9.464369 0.552801 2.486150 -25.068041 0.174556 1.420840 -14.006959 0.000002 -0.000001 0.000003 -2.218998 2.352830 7.498472 3.724755 23.913628 9.609317 -3.702375 14.952158 15.191370 -0.000001 -0.000001 -0.000001 -1.142118 8.493858 6.844809 3.392238 9.262092 61.230925 -0.000002 16.185506 -0.000001 -29.408117 -9.319323 -7.117794 -8.402349 3.389341 -4.075274 12.166135 -28.437375 -7.212915 2.246667 -19.523826 -15.066491 0.000002 -0.000002 -0.000001 0.019760 -2.664480 12.499901 0.290850 -1.621600 20.335686 0.100810 -0.964766 11.930203 -0.000000 -0.000000 -0.000001 -13.925109 13.276350 10.580673 17.403763 2.229870 4.032854 -0.427115 0.633299 -7.658012 -0.000001 0.000002 -0.000006 0.000000 0.000000 -0.000000 -1.721727 0.952441 0.171969 13.938645 -4.618012 0.058859 -8.246601 2.418898 3.084975 -0.005444 -0.000001 0.000000 0.000000 0.000000 0.000000 
1.085423 86.502113 0.804008 -3.886292 4.329531 -2.209163 2.084574 2.709928 0.783453 3.486781 -1.215217 3.135216 3.508853 -1.269897 3.109167 -2.319262 -0.921166 -2.142816 -3.557973 -4.901437 6.067629 0.000000 -0.000000 0.000000 -1.302475 -6.315467 -11.039136 10.089298 -26.483386 -66.591872 0.000005 -27.535395 0.000019 -15.136859 -3.827502 3.095514 0.040894 2.690618 -9.235445 0.545287 2.470044 -24.894277 0.162276 1.370686 -13.502744 -0.000000 -0.000001 -0.000003 -2.372300 1.952721 7.402474 3.929482 23.633081 9.237430 -3.844289 14.463786 15.125589 0.000001 0.000001 0.000002 -1.620532 8.859127 6.081521 5.413809 8.008358 58.360387 -0.000001 23.984105 0.000006 -29.451506 -10.327909 -8.588254 -8.278410 3.320460 -3.989396 12.292530 -28.375234 -6.736304 2.491443 -19.748478 -14.827577 0.000001 0.000000 0.000000 0.026959 -2.708894 12.742350 0.279752 -1.591346 19.939807 0.099693 -0.959471 11.863781 0.000000 0.000000 -0.000001 -14.482303 13.194742 10.505571 18.422391 2.493141 4.010994 -0.911254 0.668095 -7.528372 0.000016 -0.000002 0.000002 0.000000 -0.000000 0.000000 -2.535773 0.992182 -0.054301 15.181759 -4.389565 0.059064 -8.719266 2.392418 3.270904 -0.005446 0.000000 -0.000000 -0.000000 -0.000000 -0.000000 
1.365860 86.301620 0.544680 -3.648694 3.975084 -2.354210 3.002619 2.059320 1.118015 3.463239 -1.252080 3.049197 3.483734 -1.303939 3.024348 -2.342083 -0.952695 -2.060934 -3.348643 -5.237463 6.723902 0.000000 -0.000000 -0.000001 -1.232862 -6.145954 -10.778187 10.308336 -26.723767 -63.573154 -0.000001 -31.041594 0.000024 -14.600238 -2.988666 2.819031 0.043614 2.692013 -9.000962 0.537660 2.453544 -24.716639 0.150146 1.319195 -12.986310 -0.000001 -0.000000 -0.000001 -2.557127 1.394469 7.296640 4.159589 23.299133 8.848425 -4.036781 13.955191 15.098791 0.000001 0.000001 0.000004 -2.223113 9.266085 5.312482 7.609868 12.269540 51.394172 -0.000001 33.276627 -0.000020 -30.747763 -11.378249 -12.241893 -8.151730 3.251658 -3.902431 12.419482 -28.309579 -6.250728 2.740200 -19.973433 -14.584037 -0.000000 -0.000002 0.000001 0.034765 -2.755636 13.007247 0.275141 -1.578579 19.772988 0.102559 -0.973013 12.033723 -0.000000 0.000002 -0.000001 -15.443141 13.026498 10.559957 19.698848 2.915001 3.981757 -1.478352 0.708249 -7.340316 -0.000035 -0.000003 -0.000006 0.000000 -0.000000 -0.000000 -3.595489 1.011476 -0.197562 16.219853 -4.011111 0.058883 -8.945424 2.370019 3.492255 -0.005447 -0.000001 -0.000000 0.000000 0.000000 0.000000 
1.666038 86.067337 0.199623 -3.012287 3.188094 -2.240069 3.633153 1.658407 1.523879 3.403923 -1.245084 2.976721 3.422991 -1.294750 2.953236 -2.138807 -1.037762 -1.855399 -3.727776 -5.642487 7.119146 -0.000000 0.000000 -0.000000 -1.183427 -6.498125 -10.648433 10.296637 -26.235134 -60.329674 -0.000007 -33.988906 0.000013 -14.490750 -2.151830 2.578723 0.046265 2.693437 -8.761798 0.529930 2.436719 -24.535657 0.138265 1.266579 -12.459631 0.000001 0.000001 0.000001 -2.765858 0.716091 7.181783 4.408467 22.923177 8.446940 -4.266614 13.428893 15.100710 0.000001 -0.000000 0.000000 -2.940091 9.712504 4.540812 6.017932 13.229539 42.031420 0.000003 46.241760 0.000003 -28.411709 -18.592929 -14.484485 -8.022817 3.183445 -3.814937 12.546088 -28.240262 -5.758162 2.991461 -20.197228 -14.336996 0.000001 -0.000001 -0.000002 0.039221 -2.767543 12.839976 0.258973 -1.532879 19.177694 0.098322 -0.952918 11.781556 0.000001 -0.000000 -0.000000 -16.588448 12.909257 10.273913 20.693708 3.798886 3.959215 -1.874521 0.749676 -7.187697 0.000021 0.000005 -0.000003 0.000000 -0.000002 -0.000000 -5.548731 1.106440 -0.677490 17.808970 -3.250678 0.055255 -9.247239 2.351495 3.707192 -0.005444 0.000000 0.000000 -0.000000 -0.000000 -0.000000 
